<svg xmlns="http://www.w3.org/2000/svg" version="1.1" xmlns:xlink="http://www.w3.org/1999/xlink" width="512" height="512" x="0" y="0" viewBox="0 0 24 24" style="enable-background:new 0 0 512 512" xml:space="preserve" class=""><g><path d="m10 21.236-3.245-6.491L.264 11.5l6.491-3.245L10 1.764l3.245 6.491 6.491 3.245-6.491 3.245ZM4.736 11.5l3.509 1.755L10 16.764l1.755-3.509 3.509-1.755-3.509-1.755L10 6.236 8.245 9.745ZM18 21l1.5 3 1.5-3 3-1.5-3-1.5-1.5-3-1.5 3-3 1.5Zm1.333-16.333L20.5 7l1.167-2.333L24 3.5l-2.333-1.167L20.5 0l-1.167 2.333L17 3.5Z" fill="#ffffff" opacity="1" data-original="#000000" class=""></path></g></svg>